<svg width="42" height="42" viewBox="0 0 42 42" fill="none" xmlns="http://www.w3.org/2000/svg">
<g filter="url(#filter0_d_1267_2275)">
<circle cx="21" cy="21" r="13" fill="#FF4646"/>
</g>
<path d="M23.4004 26.2947L23.4067 26.2888L23.4128 26.2827C23.7772 25.9183 23.7772 25.3217 23.4128 24.9573L19.6095 21.1539C19.5247 21.0692 19.5247 20.9308 19.6095 20.846L23.4128 17.0427C23.7772 16.6783 23.7772 16.0817 23.4128 15.7173C23.0484 15.3528 22.4518 15.3528 22.0874 15.7173L18.284 19.5206C17.4704 20.3342 17.4704 21.6658 18.284 22.4794L22.0874 26.2827C22.2736 26.4689 22.5138 26.5575 22.7501 26.5575C23.0011 26.5575 23.2307 26.4531 23.4004 26.2947Z" fill="white" stroke="white"/>
<defs>
<filter id="filter0_d_1267_2275" x="0" y="0" width="42" height="42" filterUnits="userSpaceOnUse" color-interpolation-filters="sRGB">
<feFlood flood-opacity="0" result="BackgroundImageFix"/>
<feColorMatrix in="SourceAlpha" type="matrix" values="0 0 0 0 0 0 0 0 0 0 0 0 0 0 0 0 0 0 127 0" result="hardAlpha"/>
<feMorphology radius="2" operator="dilate" in="SourceAlpha" result="effect1_dropShadow_1267_2275"/>
<feOffset/>
<feGaussianBlur stdDeviation="3"/>
<feComposite in2="hardAlpha" operator="out"/>
<feColorMatrix type="matrix" values="0 0 0 0 0.92549 0 0 0 0 0.419608 0 0 0 0 0.368627 0 0 0 0.32 0"/>
<feBlend mode="normal" in2="BackgroundImageFix" result="effect1_dropShadow_1267_2275"/>
<feBlend mode="normal" in="SourceGraphic" in2="effect1_dropShadow_1267_2275" result="shape"/>
</filter>
</defs>
</svg>
